<?xml version="1.0" encoding="UTF-8"?>
<svg id="Layer_2" data-name="Layer 2" xmlns="http://www.w3.org/2000/svg" viewBox="0 0 32 21">
  <g id="Layer_1-2" data-name="Layer 1">
    <path d="M30,17c0-3.72-1.47-7.28-4.1-9.91-.59-.58-1.22-1.11-1.9-1.57v-1.02c0-1.38-1.12-2.5-2.5-2.5h-2.55c-.65-1.63-2.49-2.42-4.12-1.78-.81.32-1.45.97-1.78,1.78h-2.55c-1.38,0-2.5,1.12-2.5,2.5v1.02c-3.76,2.61-6,6.9-6,11.48-1.1,0-2,.9-2,2s.9,2,2,2h28c1.1,0,2-.9,2-2s-.9-2-2-2ZM8,6.78v2.72c0,.28.22.5.5.5s.5-.22.5-.5v-5c0-.83.67-1.5,1.5-1.5h2.32l-.82,11.47c-.02.28.19.51.46.53.28.02.52-.19.54-.46,0,0,0,0,0,0l.76-10.73.06-.79c0-.14.03-.27.08-.4.3-1.16,1.49-1.86,2.66-1.56.77.2,1.37.81,1.56,1.58.04.12.06.25.07.38l.82,11.51c.02.26.24.46.5.46h.04c.28-.02.48-.26.46-.53,0,0,0,0,0,0l-.82-11.46h2.32c.83,0,1.5.67,1.5,1.5v5c0,.28.22.5.5.5s.5-.22.5-.5v-2.74c.42.32.82.67,1.2,1.04,2.44,2.44,3.81,5.75,3.8,9.2H3c0-4,1.85-7.77,5-10.22ZM30,20H2c-.55,0-1-.45-1-1s.45-1,1-1h28c.55,0,1,.45,1,1s-.45,1-1,1Z"/>
  </g>
</svg>